<?xml version="1.0" standalone="no"?><!DOCTYPE svg PUBLIC "-//W3C//DTD SVG 1.1//EN" "http://www.w3.org/Graphics/SVG/1.1/DTD/svg11.dtd"><svg t="1724257278726" class="icon" viewBox="0 0 1024 1024" version="1.1" xmlns="http://www.w3.org/2000/svg" p-id="4916" xmlns:xlink="http://www.w3.org/1999/xlink" width="128" height="128"><path d="M407.04 827.306667c-151.04-10.453333-262.186667-57.6-262.186667-120.533334v78.72c0 73.386667 152.106667 136.32 346.026667 136.32h21.333333a307.626667 307.626667 0 0 1-105.173333-94.506666z m-21.333333-52.48a263.253333 263.253333 0 0 1-10.453334-62.933334 66.56 66.56 0 0 1 5.333334-31.36c-136.32-10.453333-235.946667-52.48-235.946667-110.08v78.72c0.213333 57.6 99.84 110.08 241.493333 125.653334z m5.333333-136.32A219.733333 219.733333 0 0 1 449.066667 554.666667c-173.013333-5.333333-304.213333-52.48-304.213334-125.866667v78.72c0 62.933333 104.96 115.413333 246.613334 130.986667zM700.8 554.666667H637.866667v125.866666H512v62.933334h125.866667v125.866666h62.933333v-125.866666h125.866667V680.533333h-125.866667zM512 187.52c-204.586667 0-367.146667 68.266667-367.146667 157.226667s162.56 157.44 367.146667 157.44h10.453333a573.44 573.44 0 0 1 277.333334-68.266667h15.786666c42.666667-26.24 62.933333-57.6 62.933334-89.173333C879.146667 256 716.586667 187.52 512 187.52z" p-id="4917"></path></svg>