<?xml version="1.0" standalone="no"?><!DOCTYPE svg PUBLIC "-//W3C//DTD SVG 1.1//EN" "http://www.w3.org/Graphics/SVG/1.1/DTD/svg11.dtd"><svg t="1724257314180" class="icon" viewBox="0 0 1024 1024" version="1.1" xmlns="http://www.w3.org/2000/svg" p-id="5994" xmlns:xlink="http://www.w3.org/1999/xlink" width="128" height="128"><path d="M513.1 99.3c57.4 0 111.4 10.9 162 32.8 50.6 21.9 94.7 51.6 132.3 89.2 37.6 37.6 67.3 81.7 89.2 132.3 21.9 50.6 32.8 104.6 32.8 162 0 57.4-10.9 111.4-32.8 162-21.9 50.6-51.6 94.7-89.2 132.3-37.6 37.6-81.7 67.2-132.3 88.8-50.6 21.6-104.6 32.4-162 32.4-50.9 0-99-8.6-144.3-25.7-45.3-17.2-86.3-40.8-123-71L347 618.7c12.4 20.1 24 38.8 34.6 55.9 8.9 14.8 17.8 28.9 26.6 42.2 8.9 13.3 15.1 22.3 18.6 27.1 6.5 8.3 12.6 16 18.2 23.1 5.6 7.1 13.5 11.2 23.5 12.4 12.4 1.8 21.3-0.4 26.6-6.7 5.3-6.2 11.2-14.4 17.8-24.4 1.8-2.4 5.2-8.6 10.2-18.6 5-10.1 11.1-22.5 18.2-37.3 7.1-14.8 15.1-31.2 24-49.3 8.9-18.1 17.8-36.6 26.6-55.5 20.7-43.8 43.8-92.6 69.3-146.5l94.1 50.6-38.2-274.3-241.3 148.3 105.7 36.4L469.6 632c-17.2-27.8-32-52.1-44.4-72.8-5.3-8.9-10.5-17.3-15.5-25.3s-9.3-14.9-12.9-20.9l-8-13.3c2.4 4.7 2.5 5.5 0.4 2.2s-5.5-7.8-10.2-13.8c-4.7-5.9-10.1-11.8-16-17.8-5.9-5.9-11.5-8.9-16.9-8.9-13.6 0-23.4 3.4-29.3 10.2-5.9 6.8-10.7 14.6-14.2 23.5-1.2 2.4-4.1 8.7-8.9 19.1-4.7 10.4-10.9 23.2-18.6 38.6-7.7 15.4-16 32.6-24.9 51.5l-28.4 55c-8.9 18.9-17.5 37-25.7 54.2-8.3 17.2-15.4 31.7-21.3 43.5-24.9-34.3-43.9-71.9-57.3-112.8-13.3-40.8-20-83.7-20-128.7 0-57.4 10.8-111.4 32.4-162 21.6-50.6 51.2-94.7 88.8-132.3 37.6-37.6 81.7-67.3 132.3-89.2 50.7-21.7 104.7-32.7 162.1-32.7z m0 0" p-id="5995"></path></svg>