<?xml version="1.0" standalone="no"?><!DOCTYPE svg PUBLIC "-//W3C//DTD SVG 1.1//EN" "http://www.w3.org/Graphics/SVG/1.1/DTD/svg11.dtd"><svg t="1724263543681" class="icon" viewBox="0 0 1024 1024" version="1.1" xmlns="http://www.w3.org/2000/svg" p-id="9507" xmlns:xlink="http://www.w3.org/1999/xlink" width="128" height="128"><path d="M537.478902 736.174771v91.340581a37.068711 37.068711 0 0 1-39.853984 39.321505 37.068711 37.068711 0 0 1-39.853985-39.321505v-91.340581a75.284299 75.284299 0 0 1-39.853984-66.436961 79.13453 79.13453 0 0 1 79.13453-78.602051l1.105917-0.532479a79.13453 79.13453 0 0 1 79.17549 79.13453c0 27.852733-15.319003 53.370752-39.853984 66.436961m198.123045-340.376783H339.847376V236.34109a154.418829 154.418829 0 0 1 158.31002-157.695621 154.418829 154.418829 0 0 1 157.777542 157.695621v32.767922h79.13453v-32.767922A236.338633 236.338633 0 0 0 498.157396 0.002458a236.338633 236.338633 0 0 0-237.44455 236.338632v157.777542A158.31002 158.31002 0 0 0 102.402826 553.534569v314.940684A158.31002 158.31002 0 0 0 260.712846 1024h474.889101a158.31002 158.31002 0 0 0 158.31002-157.736581v-312.72885a158.31002 158.31002 0 0 0-158.31002-157.777541" fill="#D4E5F2" p-id="9508"></path></svg>