<?xml version="1.0" standalone="no"?><!DOCTYPE svg PUBLIC "-//W3C//DTD SVG 1.1//EN" "http://www.w3.org/Graphics/SVG/1.1/DTD/svg11.dtd"><svg t="1724263412998" class="icon" viewBox="0 0 1024 1024" version="1.1" xmlns="http://www.w3.org/2000/svg" p-id="5917" xmlns:xlink="http://www.w3.org/1999/xlink" width="128" height="128"><path d="M512 32C306.62 32 124.041875 162.5140625 57.68 356.77625l64.8890625 22.16625C179.4565625 212.435 335.9515625 100.570625 512 100.570625c203.7721875 0 373.4259375 148.929375 405.83625 343.6621875l-59.09625-39.4078125-38.03625 57.0525L938.69375 540.528125a34.261875 34.261875 0 0 0 19.018125 5.758125 34.1775 34.1775 0 0 0 16.171875-4.05A34.275 34.275 0 0 0 992 512C992 247.323125 776.676875 32 512 32zM512 923.4284375c-203.7721875 0-373.4259375-148.9284375-405.83625-343.66125l59.09625 39.4078125 38.03625-57.0525L85.30625 483.471875c-10.479375-6.9975-24.039375-7.66875-35.1890625-1.708125S32 499.34375 32 512c0 264.676875 215.323125 480 480 480 205.4128125 0 387.9909375-130.5140625 454.32-324.77625l-64.8890625-22.16625C844.578125 811.565 688.083125 923.429375 512 923.429375z" fill="#767e89" p-id="5918"></path><path d="M690.528125 286.195625l-48.48375-48.4809375L512 367.758125 381.955625 237.715625l-48.4828125 48.4809375L477.7146875 430.4375v12.9909375H340.5715625V512h137.143125v68.5715625H340.5715625v68.5715625h137.143125V752h68.570625V649.143125h137.143125v-68.5715625H546.2853125V512h137.143125v-68.5715625H546.2853125V430.4375z" fill="#ffcc01" p-id="5919"></path></svg>