<?xml version="1.0" standalone="no"?><!DOCTYPE svg PUBLIC "-//W3C//DTD SVG 1.1//EN" "http://www.w3.org/Graphics/SVG/1.1/DTD/svg11.dtd"><svg t="1723439530135" class="icon" viewBox="0 0 1024 1024" version="1.1" xmlns="http://www.w3.org/2000/svg" p-id="4638" xmlns:xlink="http://www.w3.org/1999/xlink" width="128" height="128"><path d="M177.777778 894.577778c25.6 0 42.666667 12.8 56.888889 32.711111l8.533333 17.066667c1.422222 4.266667 4.266667 8.533333 7.111111 11.377777 9.955556 15.644444 24.177778 21.333333 44.088889 14.222223 12.8-4.266667 21.333333-12.8 29.866667-22.755556 18.488889-25.6 32.711111-52.622222 44.088889-81.066667 18.488889-46.933333 31.288889-96.711111 44.088888-146.488889 9.955556-41.244444 18.488889-82.488889 27.022223-123.733333 0-2.844444 0-4.266667-2.844445-4.266667-22.755556-2.844444-45.511111-7.111111-66.844444-9.955555-27.022222-4.266667-55.466667-8.533333-82.488889-12.8-12.8-1.422222-27.022222-4.266667-39.822222-5.688889-2.844444 0-4.266667-1.422222-4.266667-4.266667l8.533333-59.733333c0-4.266667 1.422222-7.111111 1.422223-11.377778 0-2.844444 1.422222-4.266667 4.266666-4.266666 9.955556 1.422222 18.488889 2.844444 28.444445 4.266666 31.288889 4.266667 62.577778 8.533333 93.866666 14.222222 24.177778 2.844444 48.355556 7.111111 72.533334 9.955556 2.844444 0 4.266667 0 4.266666-2.844444 4.266667-25.6 8.533333-51.2 12.8-78.222223 1.422222-7.111111 1.422222-5.688889-5.688889-7.111111-24.177778-4.266667-48.355556-7.111111-71.111111-9.955555-29.866667-4.266667-59.733333-8.533333-88.177777-12.8l-29.866667-4.266667c-5.688889-1.422222-5.688889 0-4.266667-5.688889 2.844444-22.755556 7.111111-46.933333 9.955556-69.688889 0-2.844444 1.422222-2.844444 4.266666-2.844444 22.755556 2.844444 45.511111 7.111111 66.844445 9.955555 31.288889 4.266667 62.577778 8.533333 93.866667 14.222223 12.8 1.422222 25.6 2.844444 38.4 5.688888 2.844444 0 4.266667 0 4.266666-2.844444 5.688889-27.022222 12.8-52.622222 21.333334-78.222222 11.377778-38.4 25.6-76.8 44.088888-112.355556 11.377778-21.333333 24.177778-41.244444 39.822223-59.733333 19.911111-24.177778 41.244444-46.933333 68.266666-65.422222C684.088889 14.222222 709.688889 2.844444 736.711111 0c22.755556-2.844444 44.088889 0 65.422222 8.533333 27.022222 9.955556 51.2 24.177778 71.111111 44.088889 7.111111 7.111111 12.8 17.066667 15.644445 27.022222-1.422222 21.333333-17.066667 45.511111-35.555556 48.355556-19.911111 2.844444-36.977778-2.844444-52.622222-15.644444-9.955556-8.533333-17.066667-18.488889-21.333333-29.866667-2.844444-7.111111-5.688889-12.8-9.955556-18.488889-8.533333-11.377778-19.911111-15.644444-32.711111-12.8-11.377778 2.844444-21.333333 7.111111-29.866667 15.644444-31.288889 29.866667-48.355556 68.266667-61.155555 108.088889-15.644444 48.355556-25.6 96.711111-36.977778 145.066667l-8.533333 42.666667c0 2.844444 0 2.844444 2.844444 4.266666 44.088889 7.111111 88.177778 12.8 132.266667 19.911111 19.911111 2.844444 38.4 5.688889 58.311111 8.533334 2.844444 0 4.266667 1.422222 2.844444 4.266666-2.844444 24.177778-7.111111 48.355556-9.955555 71.111112 0 2.844444-1.422222 4.266667-4.266667 2.844444-34.133333-5.688889-69.688889-9.955556-103.822222-15.644444-29.866667-4.266667-58.311111-8.533333-88.177778-12.8-2.844444 0-4.266667 0-5.688889 2.844444-4.266667 27.022222-8.533333 54.044444-12.8 79.644444 0 2.844444 1.422222 2.844444 2.844445 4.266667 19.911111 2.844444 39.822222 5.688889 61.155555 8.533333 29.866667 4.266667 59.733333 8.533333 88.177778 12.8 15.644444 2.844444 29.866667 4.266667 45.511111 7.111112 2.844444 0 4.266667 1.422222 4.266667 4.266666-4.266667 24.177778-7.111111 48.355556-9.955556 71.111111 0 2.844444-1.422222 2.844444-4.266666 2.844445-17.066667-2.844444-34.133333-5.688889-49.777778-7.111111-29.866667-4.266667-58.311111-8.533333-88.177778-12.8-19.911111-2.844444-41.244444-5.688889-61.155555-8.533334-4.266667 0-5.688889 1.422222-5.688889 4.266667-12.8 54.044444-27.022222 106.666667-42.666667 159.288889-9.955556 31.288889-19.911111 61.155556-34.133333 91.022222-9.955556 21.333333-24.177778 41.244444-38.4 59.733333-21.333333 28.444444-45.511111 52.622222-76.8 71.111112-22.755556 14.222222-45.511111 24.177778-72.533334 25.6-27.022222 2.844444-52.622222-1.422222-76.8-12.8-19.911111-8.533333-39.822222-21.333333-55.466666-36.977778-8.533333-8.533333-15.644444-18.488889-18.488889-31.288889-4.266667-18.488889 11.377778-41.244444 29.866666-45.511111 0 0 4.266667 1.422222 8.533334 0z" p-id="4639" fill="#4E6AFB"></path></svg>