<?xml version="1.0" standalone="no"?><!DOCTYPE svg PUBLIC "-//W3C//DTD SVG 1.1//EN" "http://www.w3.org/Graphics/SVG/1.1/DTD/svg11.dtd"><svg t="1717657948831" class="icon" viewBox="0 0 1024 1024" version="1.1" xmlns="http://www.w3.org/2000/svg" p-id="1112" width="200" height="200" xmlns:xlink="http://www.w3.org/1999/xlink"><path d="M311.082667 888.490667L85.333333 938.666667l50.176-225.749334A424.789333 424.789333 0 0 1 85.333333 512C85.333333 276.352 276.352 85.333333 512 85.333333s426.666667 191.018667 426.666667 426.666667-191.018667 426.666667-426.666667 426.666667a424.789333 424.789333 0 0 1-200.917333-50.176z m12.373333-90.154667l27.861333 14.933333A339.413333 339.413333 0 0 0 512 853.333333a341.333333 341.333333 0 1 0-341.333333-341.333333c0 56.917333 13.866667 111.701333 40.106666 160.682667l14.890667 27.861333-27.946667 125.738667 125.738667-27.946667z" p-id="1113" fill="#606060"></path></svg>