<?xml version="1.0" standalone="no"?><!DOCTYPE svg PUBLIC "-//W3C//DTD SVG 1.1//EN" "http://www.w3.org/Graphics/SVG/1.1/DTD/svg11.dtd"><svg t="1726044859693" class="icon" viewBox="0 0 1024 1024" version="1.1" xmlns="http://www.w3.org/2000/svg" p-id="4553" xmlns:xlink="http://www.w3.org/1999/xlink" width="128" height="128"><path d="M823.156364 851.781818H234.589091A33.745455 33.745455 0 0 1 204.101818 814.545455V236.450909a33.745455 33.745455 0 0 1 30.487273-36.305454 33.745455 33.745455 0 0 1 30.487273 36.305454v542.952727h558.545454a36.770909 36.770909 0 0 1 0 72.378182z m-70.981819-108.683636H691.2a33.745455 33.745455 0 0 1-30.487273-36.305455V453.585455a33.745455 33.745455 0 0 1 30.487273-36.305455h60.974545a33.745455 33.745455 0 0 1 30.487273 36.305455v253.44a33.745455 33.745455 0 0 1-30.487273 36.072727z m-172.450909 0h-60.974545A33.745455 33.745455 0 0 1 488.727273 707.025455V308.829091a33.745455 33.745455 0 0 1 30.487272-36.305455h60.974546a33.745455 33.745455 0 0 1 30.487273 36.305455v398.196364a33.745455 33.745455 0 0 1-30.952728 36.072727z m-172.450909 0h-60.974545a33.745455 33.745455 0 0 1-30.487273-36.305455v-72.145454a33.745455 33.745455 0 0 1 30.487273-36.305455h60.974545a33.745455 33.745455 0 0 1 30.487273 36.305455v72.378182a33.745455 33.745455 0 0 1-30.72 36.072727z" fill="#2c2c2c" p-id="4554"></path></svg>