<?xml version="1.0" standalone="no"?><!DOCTYPE svg PUBLIC "-//W3C//DTD SVG 1.1//EN" "http://www.w3.org/Graphics/SVG/1.1/DTD/svg11.dtd"><svg t="1726047030878" class="icon" viewBox="0 0 1024 1024" version="1.1" xmlns="http://www.w3.org/2000/svg" p-id="4211" xmlns:xlink="http://www.w3.org/1999/xlink" width="128" height="128"><path d="M195 256h634c17.7 0 32-14.3 32-32s-14.3-32-32-32H195c-17.7 0-32 14.3-32 32s14.3 32 32 32zM291 160h442c17.7 0 32-14.3 32-32s-14.3-32-32-32H291c-17.7 0-32 14.3-32 32s14.3 32 32 32zM877 288H147c-44 0-80 36-80 80v480c0 44 36 80 80 80h730c44 0 80-36 80-80V368c0-44-36-80-80-80zM653.2 480c17.6 0 32 14.4 32 32s-14.4 32-32 32H544v64h109.2c17.6 0 32 14.4 32 32s-14.4 32-32 32H544v128c0 17.6-14.4 32-32 32s-32-14.4-32-32V672H370.8c-17.6 0-32-14.4-32-32s14.4-32 32-32H480v-64H370.8c-17.6 0-32-14.4-32-32s14.4-32 32-32H400l-51.9-51.9c-12.4-12.4-12.4-32.8 0-45.3 12.4-12.4 32.8-12.4 45.3 0l83.9 83.9c3.8 3.8 6.5 8.4 7.9 13.3h52.5c0.8-6.9 3.9-13.5 9.1-18.8l83.9-83.9c12.4-12.4 32.8-12.4 45.3 0 12.4 12.4 12.4 32.8 0 45.3L618.5 480h34.7z" fill="#CCCCCC" p-id="4212"></path></svg>