<?xml version="1.0" standalone="no"?><!DOCTYPE svg PUBLIC "-//W3C//DTD SVG 1.1//EN" "http://www.w3.org/Graphics/SVG/1.1/DTD/svg11.dtd"><svg t="1724272407807" class="icon" viewBox="0 0 1024 1024" version="1.1" xmlns="http://www.w3.org/2000/svg" p-id="11226" xmlns:xlink="http://www.w3.org/1999/xlink" width="128" height="128"><path d="M561.900308 437.681231l-19.02277 101.533538 180.893539 25.403077-12.681846 47.655385-177.742769-25.442462c-12.681846 41.275077-19.022769 85.700923-34.89477 123.785846-15.872 44.465231-31.744 88.891077-50.806154 130.166154-25.363692 53.956923-69.828923 92.041846-130.126769 101.572923-34.894769 6.301538-72.979692 3.150769-101.533538-19.062154-9.531077-6.340923-19.062154-19.022769-19.062154-28.553846 0-12.721231 6.340923-28.593231 15.872-34.934154 6.340923-3.150769 22.212923 0 31.744 3.15077 9.531077 9.570462 19.022769 22.252308 25.363692 34.934154 19.062154 25.403077 44.465231 28.593231 69.828923 9.531076 28.593231-25.403077 44.465231-60.297846 53.956923-95.232 19.062154-76.169846 38.084923-149.188923 53.956923-225.358769v-12.681846l-168.172307-25.403077 6.301538-47.616 174.592 25.403077 22.212923-98.382769-180.932923-28.593231 6.380308-50.806154 187.234461 25.442462c6.340923-19.062154 9.531077-34.934154 15.872-50.806154 15.872-57.107692 31.744-114.254769 69.828924-165.021539 38.084923-50.806154 82.510769-82.550154 149.149538-79.36 28.593231 0 57.147077 9.491692 76.169846 31.704616 3.190154 3.190154 9.531077 9.531077 9.531077 15.872 0 12.721231 0 28.593231-9.491692 38.124308-12.721231 9.491692-28.593231 6.301538-41.275077-6.380308-9.531077-9.491692-15.872-19.022769-25.403077-28.553846-19.022769-25.403077-47.616-28.553846-69.828923-6.340923a203.382154 203.382154 0 0 0-41.235692 60.297846c-22.212923 66.678154-38.084923 136.507077-60.297847 206.336l174.552616 25.363692-12.721231 47.655385-168.172308-25.403077z" p-id="11227"></path></svg>