<?xml version="1.0" standalone="no"?><!DOCTYPE svg PUBLIC "-//W3C//DTD SVG 1.1//EN" "http://www.w3.org/Graphics/SVG/1.1/DTD/svg11.dtd"><svg t="1724303478624" class="icon" viewBox="0 0 1024 1024" version="1.1" xmlns="http://www.w3.org/2000/svg" p-id="8043" xmlns:xlink="http://www.w3.org/1999/xlink" width="128" height="128"><path d="M429.568 189.2352L103.424 736.768a96 96 0 0 0 82.432 145.1008h652.288a96 96 0 0 0 82.432-145.1008L594.432 189.2352a96 96 0 0 0-164.864 0z m98.816 21.6576c4.608 2.7136 8.3968 6.5024 11.1104 11.1104l326.144 547.5328a32 32 0 0 1-27.5456 48.3328H185.9072a32 32 0 0 1-27.4944-48.3328L484.5056 222.0032a32 32 0 0 1 39.2192-13.4144l4.608 2.304z" fill="#FF7300" p-id="8044"></path><path d="M556.032 411.5968l-9.3184 207.1552H483.5328l-8.6016-207.1552zM515.4816 727.3984c-25.3952 0-46.2336-17.8176-46.2336-44.2368s20.8384-44.7488 46.2336-44.7488c25.3952 0 46.2848 18.3296 46.2848 44.7488s-20.8896 44.2368-46.2848 44.2368" fill="#FF7300" p-id="8045"></path></svg>