<?xml version="1.0" standalone="no"?><!DOCTYPE svg PUBLIC "-//W3C//DTD SVG 1.1//EN" "http://www.w3.org/Graphics/SVG/1.1/DTD/svg11.dtd"><svg t="1724052987159" class="icon" viewBox="0 0 1024 1024" version="1.1" xmlns="http://www.w3.org/2000/svg" p-id="7528" xmlns:xlink="http://www.w3.org/1999/xlink" width="128" height="128"><path d="M636.507549 294.481107h-249.290762a84.114318 84.114318 0 0 0-89.025107 89.025107v258.191568c0 44.521079 35.620274 80.141353 89.025107 80.141353h258.191568c44.521079 0 80.141353-35.620274 80.141353-89.025107V383.523266a84.114318 84.114318 0 0 0-89.042159-89.042159z m-17.801611 106.84377v222.571294H405.001347V401.324877h213.670488z" fill="#2c2c2c" p-id="7529"></path><path d="M973.391105 553.25242a45.475955 45.475955 0 1 0 0-90.934858h-121.252162v-75.776207h121.252162a45.475955 45.475955 0 1 0 0-90.934859h-121.252162v-7.5708a127.731676 127.731676 0 0 0-128.840014-128.840014h-7.5708V45.514321A48.903277 48.903277 0 0 0 670.252174 0.038366c-22.729452 0-37.888104 15.158652-37.888103 45.475955v121.252162h-75.793259V45.514321A48.903277 48.903277 0 0 0 511.094857 0.038366a43.685563 43.685563 0 0 0-45.475955 45.475955v121.252162h-75.776207V45.514321a45.475955 45.475955 0 0 0-90.934858 0v121.252162h-7.570801a127.731676 127.731676 0 0 0-128.840013 128.840013v7.5708H48.832712a45.475955 45.475955 0 0 0 0 90.934859h121.252162v75.81031H48.832712A35.313349 35.313349 0 0 0 3.356757 507.810568a48.903277 48.903277 0 0 0 45.475955 45.475955h121.252162v75.776207H48.832712a45.475955 45.475955 0 1 0 0 90.934859h121.252162v7.5708a127.731676 127.731676 0 0 0 128.840014 128.840014h7.5708v121.252162a45.475955 45.475955 0 0 0 90.934859 0v-121.269214h75.810309v121.252162a45.475955 45.475955 0 1 0 90.934859 0v-121.252162h75.776207v121.252162a45.475955 45.475955 0 1 0 90.934859 0v-121.252162h7.5708c68.205407 0 111.788662-53.046755 111.788662-128.840013v-15.158652h121.252162a45.475955 45.475955 0 0 0 0-90.934859h-119.359462v-68.205407z m-204.616221-265.250827v439.566796a35.807839 35.807839 0 0 1-37.888103 37.888103H291.337036a35.807839 35.807839 0 0 1-37.888103-37.888103V288.018645a35.807839 35.807839 0 0 1 37.888103-37.888104h439.549745a35.807839 35.807839 0 0 1 37.888103 37.888104z" fill="#2c2c2c" p-id="7530"></path></svg>