<?xml version="1.0" standalone="no"?><!DOCTYPE svg PUBLIC "-//W3C//DTD SVG 1.1//EN" "http://www.w3.org/Graphics/SVG/1.1/DTD/svg11.dtd"><svg t="1724094412084" class="icon" viewBox="0 0 1024 1024" version="1.1" xmlns="http://www.w3.org/2000/svg" p-id="4284" xmlns:xlink="http://www.w3.org/1999/xlink" width="128" height="128"><path d="M335.4 694.2c23.5 0 34.3-17.8 34.3-39.5V517.8c0-21.9-10.8-39.5-34.3-39.5-23.5 0-34.3 17.8-34.3 39.5v136.8c0 21.8 10.7 39.6 34.3 39.6z m516.2 41.1H215.3V245.7c0-23.7-19.2-42.9-42.9-42.9s-42.9 19.2-42.9 42.9v532.1c0 23.7 28.5 43.3 52.2 43.3h669.9c23.7 0 42.9-19.2 42.9-42.9s-19.2-42.9-42.9-42.9z m-368.9-61.7c0 11.9 9.7 21.5 21.5 21.5H617c11.9 0 21.5-9.6 21.5-21.5V432.1h83.4c0-3.2-0.9-6.5-2.9-9L567.5 229.9c-3.8-5-10.2-5-14.1 0L402.2 423.1c-2 2.5-2.9 5.8-2.9 9h83.4v241.5z m213-52.9v33.9c0 21.9 10.8 39.5 34.3 39.5 23.5 0 34.3-17.8 34.3-39.5v-33.9c0-21.9-10.8-39.5-34.3-39.5-23.5 0-34.3 17.7-34.3 39.5z m0 0" p-id="4285"></path></svg>