<?xml version="1.0" standalone="no"?><!DOCTYPE svg PUBLIC "-//W3C//DTD SVG 1.1//EN" "http://www.w3.org/Graphics/SVG/1.1/DTD/svg11.dtd"><svg t="1727149927012" class="icon" viewBox="0 0 1278 1024" version="1.1" xmlns="http://www.w3.org/2000/svg" p-id="5953" xmlns:xlink="http://www.w3.org/1999/xlink" width="249.609375" height="200"><path d="M715.027776 716.553076a76.549169 76.549169 0 0 1-151.563946 21.367846 76.549169 76.549169 0 0 1 151.563946-21.367846zM692.864319 248.335848c-12.900268-54.385713-30.176399-80.754543-52.908149-80.754543-22.674921 0-40.007881 26.42566-52.851319 80.754543-11.081728 46.770576-17.219301 108.771425-17.219301 174.523014 0 78.31088 8.638065 150.484187 23.64102 198.050375l3.750739 11.934169 11.934169-3.69391a102.690682 102.690682 0 0 1 61.489385-0.056829l11.934169 3.750739 3.750738-11.934169c15.002955-47.509358 23.584191-119.682666 23.584191-197.993546 0.056829-65.865247-6.023914-127.866096-17.105642-174.579843zM558.00821 789.919801a102.520194 102.520194 0 0 1-19.378817-40.97398l-2.72781-12.218316-12.275145 2.67098c-48.589116 10.740752-115.306804 39.382758-182.990591 78.538198-56.886205 32.904209-107.46435 69.16135-142.300757 102.179218-40.576174 38.359829-54.726689 66.547199-43.417643 86.266992 6.251231 10.854411 18.640035 16.253202 37.393729 16.253202 15.343931 0 34.893237-3.580251 58.875234-10.797581 45.974965-13.752709 102.633853-39.439587 159.520058-72.343796 67.683787-39.15544 125.820238-82.743571 159.406399-119.512177l8.410748-9.263189-9.206359-8.467577a100.701654 100.701654 0 0 1-11.309046-12.331974zM1079.304075 921.479806c-34.893237-33.017867-85.414552-69.275009-142.300757-102.179218-67.740616-39.15544-134.458303-67.797445-183.04742-78.538198l-12.218315-2.67098-2.72781 12.218316a103.088488 103.088488 0 0 1-30.744693 53.362784l-9.206359 8.467577 8.467577 9.263188c33.586161 36.768606 91.722613 80.299908 159.4064 119.455348 56.886205 32.904209 113.545093 58.591087 159.520058 72.400625 23.981997 7.160501 43.588131 10.740752 58.875233 10.740752 18.753694 0 31.142498-5.398791 37.39373-16.253202 11.365875-19.719793-2.841469-47.907164-43.417644-86.266992zM821.582856 252.029758a29.835422 29.835422 0 0 0-39.723734 14.321002 30.00591 30.00591 0 0 0 14.264173 39.780564 370.698019 370.698019 0 0 1 153.098339 134.003668 368.82265 368.82265 0 0 1 59.045722 200.607697c0 16.480519 13.411733 29.892252 29.835422 29.892252a29.892252 29.892252 0 0 0 29.835422-29.892252 429.402764 429.402764 0 0 0-246.355344-388.712931zM456.851921 252.029758a429.232276 429.232276 0 0 0-246.412174 388.712931 29.892252 29.892252 0 1 0 59.670845 0c0-71.491355 20.401746-140.880023 59.045722-200.607697a370.300213 370.300213 0 0 1 153.098338-134.003668 29.949081 29.949081 0 0 0-25.402731-54.101566z" fill="" p-id="5954"></path><path d="M557.15577 7.208806a29.210299 29.210299 0 0 0-23.641021-6.478549 637.796086 637.796086 0 0 0-346.318216 178.842046 637.739256 637.739256 0 0 0-136.901967 203.449166A637.739256 637.739256 0 0 0 0.000568 632.275112c0 66.547199 10.115629 132.07147 30.11957 194.697442a28.812494 28.812494 0 0 0 36.42763 18.810523 29.09664 29.09664 0 0 0 18.753694-36.42763 581.137198 581.137198 0 0 1-27.39176-177.080335c0-78.538197 15.400761-154.80322 45.747648-226.692381A579.659634 579.659634 0 0 1 228.170513 220.546283a579.659634 579.659634 0 0 1 315.00523-162.588844 28.869323 28.869323 0 0 0 24.209314-28.585176 29.323958 29.323958 0 0 0-10.229287-22.163457zM1228.026552 382.96464a638.36438 638.36438 0 0 0-136.901966-203.449166A636.943645 636.943645 0 0 0 742.87417 0.389281a28.812494 28.812494 0 0 0-33.472502 28.642006c0 14.264173 10.172458 26.255172 24.266143 28.585176a579.659634 579.659634 0 0 1 316.482795 162.872991 581.535004 581.535004 0 0 1 170.26081 411.728829c0 60.352797-9.14953 119.739495-27.221271 176.512041a29.267129 29.267129 0 0 0 27.391759 38.359829 28.869323 28.869323 0 0 0 27.562247-20.174429 639.330479 639.330479 0 0 0 30.176399-194.697441 636.091204 636.091204 0 0 0-50.293998-249.253643z" fill="" p-id="5955"></path></svg>